<mxfile host="Electron" agent="Mozilla/5.0 (Windows NT 10.0; Win64; x64) AppleWebKit/537.36 (KHTML, like Gecko) draw.io/27.0.9 Chrome/134.0.6998.205 Electron/35.4.0 Safari/537.36" version="27.0.9">
  <diagram name="Page-1" id="fJQKvYSDg5BPfoZSww_d">
    <mxGraphModel dx="601" dy="365" grid="1" gridSize="10" guides="1" tooltips="1" connect="1" arrows="1" fold="1" page="1" pageScale="1" pageWidth="827" pageHeight="1169" math="0" shadow="0">
      <root>
        <mxCell id="0" />
        <mxCell id="1" parent="0" />
        <mxCell id="T-YeJm0OnnebPTPB74lk-3" value="" style="edgeStyle=orthogonalEdgeStyle;rounded=0;orthogonalLoop=1;jettySize=auto;html=1;" edge="1" parent="1" source="T-YeJm0OnnebPTPB74lk-1" target="T-YeJm0OnnebPTPB74lk-2">
          <mxGeometry relative="1" as="geometry" />
        </mxCell>
        <mxCell id="T-YeJm0OnnebPTPB74lk-1" value="Start" style="html=1;dashed=0;whiteSpace=wrap;shape=mxgraph.dfd.start" vertex="1" parent="1">
          <mxGeometry x="360" y="370" width="80" height="30" as="geometry" />
        </mxCell>
        <mxCell id="T-YeJm0OnnebPTPB74lk-5" value="" style="edgeStyle=orthogonalEdgeStyle;rounded=0;orthogonalLoop=1;jettySize=auto;html=1;" edge="1" parent="1" source="T-YeJm0OnnebPTPB74lk-2" target="T-YeJm0OnnebPTPB74lk-4">
          <mxGeometry relative="1" as="geometry" />
        </mxCell>
        <mxCell id="T-YeJm0OnnebPTPB74lk-2" value="Training dataset" style="shape=parallelogram;perimeter=parallelogramPerimeter;whiteSpace=wrap;html=1;fixedSize=1;" vertex="1" parent="1">
          <mxGeometry x="340" y="420" width="120" height="60" as="geometry" />
        </mxCell>
        <mxCell id="T-YeJm0OnnebPTPB74lk-7" value="" style="edgeStyle=orthogonalEdgeStyle;rounded=0;orthogonalLoop=1;jettySize=auto;html=1;" edge="1" parent="1" source="T-YeJm0OnnebPTPB74lk-4" target="T-YeJm0OnnebPTPB74lk-6">
          <mxGeometry relative="1" as="geometry" />
        </mxCell>
        <mxCell id="T-YeJm0OnnebPTPB74lk-4" value="Tuning Process Configuration" style="rounded=0;whiteSpace=wrap;html=1;" vertex="1" parent="1">
          <mxGeometry x="340" y="500" width="120" height="60" as="geometry" />
        </mxCell>
        <mxCell id="T-YeJm0OnnebPTPB74lk-10" value="" style="edgeStyle=orthogonalEdgeStyle;rounded=0;orthogonalLoop=1;jettySize=auto;html=1;" edge="1" parent="1" source="T-YeJm0OnnebPTPB74lk-6" target="T-YeJm0OnnebPTPB74lk-9">
          <mxGeometry relative="1" as="geometry" />
        </mxCell>
        <mxCell id="T-YeJm0OnnebPTPB74lk-6" value="&lt;p&gt;Hyperparameter Search with RandomizedSearchCV&lt;/p&gt;" style="rounded=0;whiteSpace=wrap;html=1;" vertex="1" parent="1">
          <mxGeometry x="340" y="580" width="120" height="60" as="geometry" />
        </mxCell>
        <mxCell id="T-YeJm0OnnebPTPB74lk-12" value="" style="edgeStyle=orthogonalEdgeStyle;rounded=0;orthogonalLoop=1;jettySize=auto;html=1;" edge="1" parent="1" source="T-YeJm0OnnebPTPB74lk-9" target="T-YeJm0OnnebPTPB74lk-11">
          <mxGeometry relative="1" as="geometry" />
        </mxCell>
        <mxCell id="T-YeJm0OnnebPTPB74lk-9" value="Best Model with Optimal Hyperparameters" style="shape=parallelogram;perimeter=parallelogramPerimeter;whiteSpace=wrap;html=1;fixedSize=1;" vertex="1" parent="1">
          <mxGeometry x="340" y="660" width="120" height="60" as="geometry" />
        </mxCell>
        <mxCell id="T-YeJm0OnnebPTPB74lk-15" value="" style="edgeStyle=orthogonalEdgeStyle;rounded=0;orthogonalLoop=1;jettySize=auto;html=1;" edge="1" parent="1" source="T-YeJm0OnnebPTPB74lk-11" target="T-YeJm0OnnebPTPB74lk-14">
          <mxGeometry relative="1" as="geometry" />
        </mxCell>
        <mxCell id="T-YeJm0OnnebPTPB74lk-11" value="&lt;p&gt;Model Probability Calibration&lt;/p&gt;" style="rounded=0;whiteSpace=wrap;html=1;" vertex="1" parent="1">
          <mxGeometry x="340" y="740" width="120" height="60" as="geometry" />
        </mxCell>
        <mxCell id="T-YeJm0OnnebPTPB74lk-17" value="" style="edgeStyle=orthogonalEdgeStyle;rounded=0;orthogonalLoop=1;jettySize=auto;html=1;" edge="1" parent="1" source="T-YeJm0OnnebPTPB74lk-14" target="T-YeJm0OnnebPTPB74lk-16">
          <mxGeometry relative="1" as="geometry" />
        </mxCell>
        <mxCell id="T-YeJm0OnnebPTPB74lk-14" value="Final Calibrated LightGBM Model" style="shape=parallelogram;perimeter=parallelogramPerimeter;whiteSpace=wrap;html=1;fixedSize=1;" vertex="1" parent="1">
          <mxGeometry x="340" y="820" width="120" height="60" as="geometry" />
        </mxCell>
        <mxCell id="T-YeJm0OnnebPTPB74lk-16" value="End" style="html=1;dashed=0;whiteSpace=wrap;shape=mxgraph.dfd.start" vertex="1" parent="1">
          <mxGeometry x="360" y="900" width="80" height="30" as="geometry" />
        </mxCell>
      </root>
    </mxGraphModel>
  </diagram>
</mxfile>
